<?xml version="1.0" encoding="UTF-8" standalone="no"?>
<!-- Created with Inkscape (http://www.inkscape.org/) -->

<svg
   xmlns:dc="http://purl.org/dc/elements/1.1/"
   xmlns:cc="http://creativecommons.org/ns#"
   xmlns:rdf="http://www.w3.org/1999/02/22-rdf-syntax-ns#"
   xmlns:svg="http://www.w3.org/2000/svg"
   xmlns="http://www.w3.org/2000/svg"
   xmlns:sodipodi="http://sodipodi.sourceforge.net/DTD/sodipodi-0.dtd"
   xmlns:inkscape="http://www.inkscape.org/namespaces/inkscape"
   version="1.1"
   width="625"
   height="679"
   viewBox="0 0 625 679"
   id="svg2"
   inkscape:version="0.48.5 r10040"
   sodipodi:docname="Stuhl - Kopie.svg">
  <sodipodi:namedview
     pagecolor="#ffffff"
     bordercolor="#666666"
     borderopacity="1"
     objecttolerance="10"
     gridtolerance="10"
     guidetolerance="10"
     inkscape:pageopacity="0"
     inkscape:pageshadow="2"
     inkscape:window-width="1920"
     inkscape:window-height="1137"
     id="namedview18"
     showgrid="false"
     inkscape:zoom="0.69513991"
     inkscape:cx="-278.9887"
     inkscape:cy="237.15979"
     inkscape:window-x="-8"
     inkscape:window-y="-8"
     inkscape:window-maximized="1"
     inkscape:current-layer="svg2" />
  <defs id="defs4">
    <clipPath id="clipPath3001">
      <path d="m 0,990 4686,0 0,4526 L 0,5516 0,990" id="path3003" />
    </clipPath>
  </defs>
  <metadata id="metadata7">
    <rdf:RDF>
      <cc:Work
         rdf:about="">
        <dc:format>image/svg+xml</dc:format>
        <dc:type
           rdf:resource="http://purl.org/dc/dcmitype/StillImage" />
        <dc:title />
      </cc:Work>
    </rdf:RDF>
  </metadata>
  <g
     transform="translate(-684.28503,-641.30079)"
     id="layer1"
     style="fill:#efefef;fill-opacity:1">
    <g
       transform="matrix(0,-1.25,-1.25,0,1523.7679,1344.5836)"
       id="g2993"
       style="fill:#efefef;fill-opacity:1">
      <g
         transform="matrix(0.12,0,0,0.12,16,31)"
         id="g2995"
         style="fill:#efefef;fill-opacity:1">
        <g
           id="g2997"
           style="fill:#efefef;fill-opacity:1">
          <g
             clip-path="url(#clipPath3001)"
             id="g2999"
             style="fill:#efefef;fill-opacity:1">
            <path
               d="m 549,4215 -249,0 -11,-1 -11,-2 -9,-4 -12,-7 -7,-6 -5,-6 -6,-9 -4,-9 -4,-12 -2,-15"
               id="path3005"
               style="fill:#efefef;stroke:#000000;stroke-width:10.41666698000000000;stroke-linecap:round;stroke-linejoin:round;stroke-miterlimit:10;stroke-opacity:1;stroke-dasharray:none;fill-opacity:1" />
            <path
               d="m 229,4144 0,0"
               id="path3007"
               style="fill:#efefef;stroke:#000000;stroke-width:6;stroke-linecap:round;stroke-linejoin:round;stroke-miterlimit:10;stroke-opacity:1;stroke-dasharray:none;fill-opacity:1" />
            <path
               d="m 229,4144 0,-96 -37,-66 -60,19 -12,-9 -16,-14 -16,-17 -14,-19 -12,-19 -10,-20 -8,-22 -5,-16 -4,-18 -2,-20 -1,-21 1,-20 3,-23 9.104573,-30.365 184.072507,-63.1344 -1.14202,235.966"
               id="path3009"
               style="fill:#efefef;fill-opacity:1;stroke:#000000;stroke-width:10.41666698;stroke-linecap:round;stroke-linejoin:round;stroke-miterlimit:10;stroke-opacity:1;stroke-dasharray:none"
               inkscape:connector-curvature="0"
               sodipodi:nodetypes="cccccccccccccccccccc" />
            <path
               d="m 40,3743 0,0"
               id="path3011"
               style="fill:#efefef;stroke:#000000;stroke-width:6;stroke-linecap:round;stroke-linejoin:round;stroke-miterlimit:10;stroke-opacity:1;stroke-dasharray:none;fill-opacity:1" />
            <path
               d="m 4347.2168,4162.7717 -15.6219,30.0491 -30.6069,19.26 -121.1163,3.0762 -93.5438,2.4768 -56.5436,-0.4799 -181.645,90.1554 -122.6106,60.3359 -183.6434,84.0709 -178.0467,67.3999 -128.8812,38.5788 -170.4175,46.2079 -187.3712,36.0358 -201.8157,27.9923 -144.1737,19.5155 -128.9153,4.2572 -111.9617,2.5618 -249.2857,-9.3057 -210.2926,-22.8685 -203.5111,-33.0406 -356.0934,-92.3782 -538.25624,-227.983 -88.57621,-45.845 -95.35764,-47.9642 -108.95167,1.2141 c -22.94281,1.2216 -168.28702,5.6574 -169.56989,-1.2622 l -16.4408,-14.0879 -16.44081,-14.088 -8.96834,-33.1436 -0.91539,-80.6136 0.98417,-401.5104 L 44,3731 l 3,-1 -13,-22 0,-8 1,-6 2,-12 3,-10 5,-11 4,-8 9,-14 8,-9 7,-7 5,-5 6,-4 7,-5 9,-4 8,-4 8,-3 11,-3 13,-2 10,-1 9,1 9,1 8,1 10,2 10,4 7,3 8,4 4,3 4,2 10,17 0,41 -182,59 182,-59 0,299 -37,12 37,-12 0,78 0,-1751 1,-10 2,-10 3,-8 3,-7 6,-9 6,-6 8,-8 9,-5 7,-3 7,-3 11,-2 8,0 249,0 14,1 8,2 7,3 8,4 6,5 7,5 6,7 4,6 5,10 3,8 3,11 0,9 0,1847 -1,13 -3,10 -5,12 -8,11 -4,4 -6,6 -5,4 -6,3 -7,3 -9,3 -8,1 -9,1 184,94 -154,-2782 5,-57 33,-76 57,-56 55,-27 63,-9 49,0 9,-12 15,-19 16,-15 17,-15 20,-14 22,-11 20,-9 28,-8 28,-5 26,-2 4,5 19,-21 13,-3 14,-1 13,0 20,3 17,5 12,6 16,10 8,7 11,12 9,13 7,13 5,12 3,12 2,11 1,10 0,10 -1,6 -91,0 -78,-105 78,105 -283,0 2900,0 -283,0 42,-58 -42,58 -171,0 2,-11 3,-12 4,-10 5,-10 7,-10 6,-9 10,-10 10,-8 9,-6 11,-5 11,-5 15,-4 12,-1 11,-1 97,44 38,-52 15,1 23,2 21,4 20,6 26,11 25,14 21,15 19,17 12,12 12,15 9,13 47,0 61,9 32,13 33,20 28,25 39,58 15,43 4,57 -153,2782 184,-94 -20,-2 -20,-10 -11,-8 -17,-28 -4,-23 0,-1847 4,-23 10,-19 19,-18 27,-10 11,-1 249,0 24,4 27,17 10,12 7,16 3,22 1,1776 -1,-103 96,30 -96,-30 0,-299 126,41 -126,-41 1,-140 7,-2 7,-1 10,-1 7,0 9,0 6,1 7,1 6,1 9,3 5,2 6,3 7,3 6,4 6,4 5,4 5,4 5,5 4,4 4,6 3,4 4,6 4,7 2,5 2,5 2,6 -13,107 62,20 2,5 1,6 2,7 3,10 1,10 2,9 1,11 0,13 0,10 0,9 -1,7 -1,10 -2,10 -2,9 -3,13 -3,12 -2,6 -4,9 -4,10 -7,12 -8,15 -9,13 -8,11 -9,10 -8,8 -7,7 -9,8 -14,10 -3,-2 -3,25 -1,2 -4,4 -6,7 -7,7 -7,5 -8,5 -7,4 -8,4 -8,3 -7,2 -6,2 -22.3774,3.543 -1.8521,67.1062 -2.0067,22.1621"
               id="path3013"
               style="fill:#efefef;fill-opacity:1;stroke:#000000;stroke-width:10.41666698;stroke-linecap:round;stroke-linejoin:round;stroke-miterlimit:10;stroke-opacity:1;stroke-dasharray:none"
               inkscape:connector-curvature="0"
               sodipodi:nodetypes="ccccccccccccccccccccccccccccccccccccccccccccccccccccccccccccccccccccccccccccccccccccccccccccccccccccccccccccccccccccccccccccccccccccccccccccccccccccccccccccccccccccccccccccccccccccccccccccccccccccccccccccccccccccccccccccccccccccccccccccccccccccccccccccccccccccccccccccccccccccccccccccccc" />
            <path
               d="m 4344.9407,4170.3422 5.9466,-27.1904 0.1127,-82.867 -1,83.7152 -3,22 -17,28 -17,12 -14,7 -268,2 -184,94 -63,32 -119,57 -138,58 -207,75 -166,49 -173,42 -163,30 -155,21 -88,9 -91,6 -75,4 -36,1 -47,1 -11,0 -22,0 0,284 12,0 10,0 55,-1 50,-2 59,-4 53,-4 72,-8 55,-7 69,-10 72,-13 65,-14 67,-16 69,-18 59,-17 62,-20 69,-23 49,-19 64,-25 75,-32 60,-27 54,-10 42,4 46,17 40,29 32,41 14,35 8,52 -10,58 -28,52 -33,32 -60,32 -62,28 -62,25 -65,26 -69,25 -77,26 -61,19 -66,18 -62,17 -52,12 -60,13 -53,11 -71,12 -68,11 -80,10 -75,8 -70,6 -66,3 -65,2 -70,1 -70,-1 -74,-2 -84,-5 -93,-9 -79,-9 -68,-10 -97,-17 -80,-16 -78,-19 -86,-22 -78,-23 -90,-30 -79,-28 -76,-29 -60,-25 -58,-26 -45,-21 -31,-22 -34,-41 -17,-37 -7,-36 -1,-30 7,-41 9,-24 28,-42 22,-21 36,-22 34,-12 47,-5 35,5 34,12 56,25 71,30 46,19 54,20 51,18 68,22 64,19 71,19 71,17 88,18 75,13 77,11 84,9 59,5 51,4 48,2 57,1 31,1 14,0 0,-284 -48,0 -51,-2 -69,-2 -58,-4 -53,-4 -55,-5 -88,-10 -79,-10 -64,-11 -59,-10 -56,-11 -114,-26 -58,-15 -77,-21 -73,-22 -79,-26 -77.3907,-34.4768 -72.4371,-34.6954 -65.08612,-26.6953 -56.91393,-19.2186 L 870.3976,4369.4066 820,4353 l -41,-20 -46,-24 47.54377,22.6177 38.77307,20.0706 50.54077,20.7681 70.41802,26.8267 49.09222,18.5673 145.02685,66.6972 160.2851,55.6772 144.1792,41.2667 172.1526,44.6574 115.3581,16.6841 234.8809,34.4853 161.9805,13.2932 119.5965,3.1213 47.5437,-0.2696 c 34.538,3.866 187.8651,-9.4091 190.7716,-5.5431 l 94.7229,-6.0786 86.8278,-9.7146 155.9262,-21.9684 163.144,-27.3454 172.0572,-40.7379 166.0984,-50.6441 207.0529,-75.4427 138.0001,-58.0177 117.0358,-56.9733 64.5296,-32.7577 182.6114,-93.297 114.2465,0.2774 150.2262,-1.9266 20.418,-5.3556 15.3319,-12.1371 11.9413,-12.1371 8.5505,-32.4813"
               id="path3015"
               style="fill:#efefef;fill-opacity:1;stroke:#000000;stroke-width:10.41666698;stroke-linecap:round;stroke-linejoin:round;stroke-miterlimit:10;stroke-opacity:1;stroke-dasharray:none"
               inkscape:connector-curvature="0"
               sodipodi:nodetypes="ccccccccccccccccccccccccccccccccccccccccccccccccccccccccccccccccccccccccccccccccccccccccccccccccccccccccccccccccccccccccccccccccccccccccccccccccccccccccccccccccccccccccccccccccccccccc" />
          </g>
        </g>
      </g>
    </g>
  </g>
</svg>
